<svg width="200" height="200" viewBox="0 0 200 200" xmlns="http://www.w3.org/2000/svg">
  <!-- Top hand (darker reddish-brown) -->
  <path d="M 30 40 L 30 80 Q 30 100 50 110 Q 70 120 90 115 Q 110 110 120 100 Q 130 90 135 75 Q 140 60 135 45 Q 130 30 120 25 Q 110 20 100 22 Q 90 24 82 30 Q 74 36 68 44 Q 62 52 56 60 Q 50 68 44 76 Q 38 84 32 92 Q 26 100 30 110 L 30 40 Z" fill="#8B4513" stroke="white" stroke-width="2"/>
  <path d="M 50 50 Q 55 60 60 65" stroke="white" stroke-width="1.5" fill="none"/>
  <path d="M 60 60 Q 65 70 70 75" stroke="white" stroke-width="1.5" fill="none"/>
  <path d="M 70 70 Q 75 80 80 85" stroke="white" stroke-width="1.5" fill="none"/>
  <path d="M 80 80 Q 85 90 90 95" stroke="white" stroke-width="1.5" fill="none"/>
  
  <!-- Bottom hand (brighter orange) -->
  <path d="M 170 120 L 170 160 Q 170 180 150 190 Q 130 200 110 195 Q 90 190 80 180 Q 70 170 65 155 Q 60 140 65 125 Q 70 110 80 105 Q 90 100 100 102 Q 110 104 118 110 Q 126 116 132 124 Q 138 132 144 140 Q 150 148 156 156 Q 162 164 168 172 Q 174 180 170 190 L 170 120 Z" fill="#FF8C42" stroke="white" stroke-width="2"/>
  <path d="M 150 130 Q 145 140 140 145" stroke="white" stroke-width="1.5" fill="none"/>
  <path d="M 140 140 Q 135 150 130 155" stroke="white" stroke-width="1.5" fill="none"/>
  <path d="M 130 150 Q 125 160 120 165" stroke="white" stroke-width="1.5" fill="none"/>
  <path d="M 120 160 Q 115 170 110 175" stroke="white" stroke-width="1.5" fill="none"/>
</svg>
